<?xml version="1.0" encoding="utf-8"?>
<!-- Generator: Adobe Illustrator 15.0.0, SVG Export Plug-In . SVG Version: 6.00 Build 0)  -->
<!DOCTYPE svg PUBLIC "-//W3C//DTD SVG 1.1//EN" "http://www.w3.org/Graphics/SVG/1.1/DTD/svg11.dtd">
<svg version="1.1" id="图层_1" xmlns="http://www.w3.org/2000/svg" xmlns:xlink="http://www.w3.org/1999/xlink" x="0px" y="0px"
	 width="125px" height="71px" viewBox="0 0 125 71" enable-background="new 0 0 125 71" xml:space="preserve">
<g>
	<g>
		<polygon points="84.126,29.816 80.817,29.816 80.817,42.489 84.126,42.489 84.126,36.421 88.491,36.421 88.491,42.489 
			91.795,42.489 91.795,29.816 88.491,29.816 88.491,35.885 84.126,35.885 		"/>
		<path d="M9.454,29.81H3.792v0.002c-1.489,1.688-2.391,3.905-2.391,6.331c0,2.428,0.902,4.646,2.391,6.333v0.001h5.662
			c-2.866-0.683-4.999-3.258-4.999-6.334C4.456,33.068,6.588,30.493,9.454,29.81z"/>
		<path d="M73.963,29.81h-5.658v0.002c-1.49,1.688-2.394,3.905-2.394,6.331c0,2.428,0.903,4.646,2.394,6.333v0.001h5.658
			c-2.862-0.683-4.996-3.258-4.996-6.334C68.967,33.068,71.101,30.493,73.963,29.81z"/>
		<path d="M58.179,36.826"/>
		<path d="M43.503,29.803c1.936,0.46,3.458,1.975,3.921,3.898v-3.898H43.503z"/>
		<path d="M47.414,38.567c-0.459,1.936-1.974,3.46-3.898,3.921h3.898V38.567z"/>
		<path d="M10.737,29.803c1.935,0.46,3.458,1.975,3.922,3.898v-3.898H10.737z"/>
		<path d="M14.646,38.553c-0.458,1.938-1.975,3.462-3.897,3.924h3.897V38.553z"/>
		<path d="M75.354,29.803c1.938,0.46,3.462,1.975,3.925,3.898v-3.898H75.354z"/>
		<path d="M79.265,38.553c-0.458,1.938-1.974,3.462-3.896,3.924h3.896V38.553z"/>
		<rect x="48.909" y="29.803" width="3.292" height="12.685"/>
		<path d="M15.803,42.467h0.54l1.812-6.046h3.458l1.813,6.046h3.303l-3.791-12.662h-3.342L15.803,42.467z M21.452,35.885h-3.137
			l1.567-5.231L21.452,35.885z"/>
		<polygon points="27.882,42.457 28.418,42.457 28.418,31.435 31.724,42.466 34.341,42.466 37.637,31.474 37.637,42.467 
			40.946,42.467 40.946,36.415 45.539,36.415 45.539,35.881 40.946,35.881 40.946,29.805 37.595,29.805 34.436,40.345 
			31.236,29.805 27.882,29.805 		"/>
		<path d="M57.433,36.701c0.25-0.185,0.478-0.395,0.684-0.623h0.004l0,0c0.032-0.039,0.063-0.079,0.099-0.117
			c0.146-0.175,0.395-0.552,0.395-0.552c0.444-0.727,0.703-1.583,0.703-2.497c0-1.187-0.433-2.27-1.145-3.107h-4.251
			c1.32,0.415,2.277,1.649,2.277,3.107c0,1.524-1.06,2.808-2.505,3.161l3,6.394h3.501L57.433,36.701z"/>
		<rect x="61.417" y="29.805" width="3.305" height="12.662"/>
	</g>
	<g>
		<path d="M98.913,32.151h1.239c0.249-0.288,0.429-0.501,0.539-0.64c0.111-0.14,0.194-0.22,0.252-0.238
			c0.059-0.019,0.173,0.043,0.347,0.187c0.259,0.24,0.466,0.434,0.619,0.583c0.153,0.148,0.22,0.249,0.201,0.303
			c-0.02,0.052-0.077,0.079-0.172,0.079h-3.241c-0.508,0.739-1.119,1.517-1.829,2.333l-0.302,0.347
			c-0.068,0.076-0.119,0.091-0.151,0.042c-0.034-0.047-0.046-0.09-0.037-0.129l0.245-0.519l0.418-0.878
			c0.105-0.25,0.3-0.792,0.583-1.628s0.462-1.445,0.541-1.829l0.114-0.619l0.029-0.173c0.01,0,0.033-0.005,0.072-0.014
			c0.085,0,0.198,0.021,0.338,0.064c0.139,0.043,0.428,0.123,0.863,0.238c0.438,0.115,0.684,0.211,0.735,0.288
			c0.053,0.076,0.079,0.134,0.079,0.172c-0.019,0.086-0.153,0.182-0.403,0.288C99.628,30.966,99.268,31.545,98.913,32.151z
			 M97.386,34.24l0.591,0.072h1.801c0.191-0.26,0.341-0.463,0.446-0.612c0.106-0.149,0.188-0.226,0.245-0.23
			c0.059-0.005,0.148,0.036,0.272,0.122c0.481,0.384,0.754,0.623,0.822,0.714c0.065,0.091,0.09,0.161,0.072,0.208
			c-0.02,0.049-0.063,0.072-0.131,0.072h-1.338c-0.049,0.134-0.135,0.23-0.26,0.288V36.5h0.288c0.364-0.536,0.583-0.813,0.654-0.828
			c0.072-0.014,0.176,0.027,0.31,0.123c0.413,0.327,0.67,0.55,0.771,0.67c0.101,0.12,0.143,0.202,0.122,0.245
			c-0.02,0.043-0.067,0.065-0.144,0.065h-2.002v3.369c0.499-0.221,1.026-0.48,1.585-0.777l0.489-0.26
			c0.086-0.038,0.147-0.032,0.187,0.016c0.038,0.047,0.029,0.1-0.029,0.157l-0.445,0.462c-0.778,0.786-1.513,1.637-2.205,2.549
			l-0.187,0.245c-0.076,0.096-0.127,0.146-0.151,0.151c-0.024,0.004-0.045-0.014-0.063-0.052l-0.822-1.497l-0.114-0.188
			c0-0.009,0.03-0.053,0.093-0.13c0.063-0.076,0.116-0.197,0.158-0.359c0.043-0.163,0.064-0.336,0.064-0.519v-3.168h-1.123
			l-0.519,0.057l-0.388-0.389L97.2,36.5h1.266v-1.915h-0.259l-0.433,0.043L97.386,34.24z M103.521,36.904
			c-0.259,0.135-0.535,0.207-0.826,0.216c-0.295,0.01-0.457-0.009-0.491-0.058c-0.033-0.048-0.055-0.105-0.065-0.173l0.072-1.138
			v-2.089l-0.072-1.167c0.011-0.018,0.022-0.03,0.037-0.035c0.015-0.004,0.142,0.031,0.382,0.107l1.108,0.404h1.743
			c0.498-1.239,0.811-2.165,0.937-2.779l0.114-0.577l0.028-0.172c0.01-0.009,0.034-0.019,0.073-0.028
			c0.048,0,0.112,0.019,0.193,0.057c0.082,0.039,0.39,0.137,0.923,0.295c0.531,0.158,0.837,0.283,0.914,0.375
			c0.076,0.091,0.106,0.16,0.086,0.208c-0.028,0.068-0.207,0.148-0.532,0.245c-0.673,0.749-1.403,1.541-2.189,2.376h1.166
			c0.289-0.404,0.463-0.612,0.526-0.626c0.063-0.015,0.18,0.021,0.353,0.107l0.433,0.23c0.509,0.279,0.767,0.446,0.777,0.504
			c0,0.077-0.14,0.225-0.417,0.446v1.7l0.072,1.166c-0.116,0.28-0.388,0.436-0.814,0.469c-0.428,0.034-0.672,0.021-0.735-0.036
			c-0.062-0.058-0.094-0.152-0.094-0.288v-0.259h-3.614v0.288c0.346,0.095,0.61,0.168,0.792,0.216l0.604,0.173
			c0.116,0.038,0.219,0.079,0.311,0.123c0.091,0.044,0.121,0.096,0.094,0.157c-0.029,0.063-0.134,0.156-0.317,0.281
			c-0.298,1.105-0.546,1.879-0.742,2.325c-0.196,0.447-0.456,0.851-0.777,1.211s-0.746,0.68-1.275,0.958
			c-0.527,0.278-0.982,0.459-1.367,0.547l-0.548,0.13c-0.095,0.029-0.156,0.017-0.181-0.037c-0.022-0.051,0.022-0.112,0.138-0.181
			l0.505-0.258c0.71-0.365,1.243-0.84,1.598-1.426c0.355-0.586,0.588-1.078,0.699-1.477
			C103.251,39.02,103.378,38.182,103.521,36.904z M102.918,29.832c1.181,0.442,1.803,0.911,1.864,1.405
			c0.063,0.495,0.005,0.841-0.173,1.037c-0.177,0.196-0.421,0.291-0.728,0.28c-0.23,0-0.418-0.058-0.563-0.173
			c-0.144-0.115-0.234-0.297-0.272-0.547l-0.043-0.561c-0.019-0.23-0.07-0.441-0.151-0.634c-0.081-0.192-0.178-0.35-0.289-0.475
			c-0.111-0.125-0.181-0.211-0.216-0.259c-0.033-0.048-0.035-0.093-0.008-0.137c0.03-0.043,0.098-0.056,0.202-0.036L102.918,29.832z
			 M103.608,36.112h3.614v-2.866h-3.614V36.112z M106.994,37.336v3.384c0,0.26,0.023,0.431,0.071,0.513
			c0.048,0.081,0.292,0.107,0.733,0.078c0.336-0.008,0.546-0.021,0.627-0.035c0.083-0.014,0.181-0.064,0.296-0.15
			s0.325-0.524,0.634-1.311l0.302-0.779c0.03-0.076,0.074-0.107,0.138-0.092c0.063,0.013,0.089,0.054,0.078,0.121l-0.114,0.706
			c-0.059,0.336-0.09,0.553-0.094,0.647c-0.006,0.097,0.007,0.221,0.035,0.375c0.02,0.162,0.063,0.283,0.13,0.359l0.217,0.202
			c0.221,0.211,0.254,0.446,0.101,0.706c-0.145,0.248-0.375,0.417-0.691,0.504c-0.317,0.086-0.854,0.134-1.613,0.145
			c-1.008,0.028-1.62-0.014-1.836-0.123c-0.216-0.111-0.344-0.221-0.382-0.331c-0.039-0.111-0.057-0.281-0.057-0.511v-3.688
			l-0.088-1.367c0.048-0.039,0.125-0.053,0.23-0.044c0.049,0.021,0.319,0.058,0.813,0.116c0.495,0.057,0.752,0.144,0.771,0.259
			C107.295,37.116,107.195,37.221,106.994,37.336z"/>
		<path d="M111.055,30.495l0.836,0.058h2.722c0.277-0.423,0.461-0.643,0.547-0.663c0.125-0.019,0.391,0.104,0.8,0.368
			c0.408,0.263,0.615,0.438,0.626,0.525c0,0.096-0.124,0.222-0.374,0.374l-0.347,5.214c0.126-0.21,0.234-0.326,0.324-0.346
			c0.092-0.02,0.209,0.005,0.354,0.072c0.729,0.383,1.085,0.653,1.065,0.807c-0.021,0.086-0.173,0.216-0.46,0.389
			c-0.029,0.412-0.059,0.797-0.086,1.152c-0.03,0.355-0.088,0.84-0.175,1.455c-0.086,0.614-0.221,1.184-0.402,1.713
			c-0.183,0.527-0.555,0.869-1.116,1.022c-0.562,0.154-0.892,0.168-0.986,0.044c-0.029-0.029-0.078-0.188-0.146-0.476
			c-0.066-0.288-0.336-0.527-0.805-0.72l-0.333-0.13c-0.096-0.027-0.134-0.074-0.114-0.137c0.019-0.063,0.063-0.093,0.13-0.093
			l0.388,0.042c0.615,0.077,1.049,0.049,1.305-0.086c0.254-0.134,0.423-0.373,0.504-0.712c0.081-0.342,0.157-0.752,0.229-1.232
			c0.073-0.479,0.124-0.946,0.152-1.396l0.028-0.793l0.015-0.259h-2.637c-0.383,0.412-0.608,0.619-0.676,0.619
			c-0.067,0.01-0.153-0.024-0.26-0.101l-0.749-0.519c-0.134-0.068-0.21-0.12-0.229-0.158c-0.021-0.038-0.026-0.087-0.022-0.145
			c0.005-0.058,0.155-0.183,0.454-0.375c0.125-0.951,0.221-2.049,0.288-3.297l0.029-0.591l-0.029-0.577
			c0.01-0.066,0.053-0.1,0.129-0.1c0.097,0.01,0.36,0.058,0.793,0.144c0.432,0.086,0.679,0.156,0.741,0.208
			c0.063,0.053,0.099,0.1,0.108,0.137c0,0.086-0.109,0.201-0.332,0.345l-0.288,4.148h1.427l0.33-5.603l-2.52-0.014l-0.979,0.043
			L111.055,30.495z M112.105,38.733c0.452-0.029,1.281-0.144,2.491-0.345l0.605-0.103l0.216-0.043
			c0.145,0.011,0.186,0.052,0.122,0.123c-0.062,0.071-0.122,0.122-0.18,0.151l-0.417,0.216c-0.183,0.097-1.052,0.591-2.606,1.482
			l-0.576,0.317l-0.158,0.102c-0.029,0.009-0.054,0.009-0.073,0c-0.02-0.011-0.063-0.173-0.129-0.49l-0.216-0.979
			c-0.059-0.222-0.082-0.336-0.071-0.346c0.008-0.01,0.023-0.025,0.043-0.044h0.287L112.105,38.733z M117.852,35.104v-2.377
			l-0.071-1.238c0.067-0.048,0.191-0.057,0.374-0.029c0.913,0.192,1.379,0.346,1.398,0.461c0.008,0.114-0.107,0.245-0.346,0.388
			v2.362l0.862-0.26v-3.715l-0.071-1.195c0.019-0.058,0.102-0.072,0.246-0.044c0.104,0.029,0.306,0.061,0.604,0.094
			c0.297,0.034,0.528,0.092,0.69,0.173c0.163,0.082,0.25,0.142,0.26,0.18c0,0.058-0.134,0.197-0.403,0.418v3.673l1.108-0.332
			c0.212-0.412,0.351-0.638,0.418-0.677c0.066-0.037,0.201-0.019,0.402,0.058c0.087,0.038,0.323,0.122,0.708,0.252
			c0.383,0.129,0.58,0.266,0.589,0.41c0,0.067-0.129,0.211-0.388,0.433c-0.029,0.335-0.044,0.584-0.044,0.748l-0.044,1.138
			c-0.019,0.346-0.048,0.728-0.086,1.145c-0.039,0.417-0.129,0.754-0.272,1.009c-0.145,0.254-0.304,0.441-0.476,0.562
			c-0.173,0.12-0.373,0.216-0.598,0.288c-0.227,0.072-0.372,0.072-0.439,0s-0.14-0.221-0.217-0.445
			c-0.076-0.227-0.298-0.445-0.662-0.657v0.49l0.043,1.109c-0.057,0.182-0.276,0.312-0.655,0.389
			c-0.38,0.078-0.601,0.084-0.663,0.021c-0.062-0.062-0.104-0.126-0.122-0.193l0.071-1.945v-3.125l-0.862,0.259l-0.015,5.329
			c-0.01,0.202,0.002,0.347,0.034,0.432c0.035,0.087,0.143,0.173,0.326,0.26c0.182,0.088,0.676,0.13,1.482,0.13
			c1.037,0.009,1.673-0.042,1.908-0.158c0.235-0.115,0.435-0.269,0.598-0.461s0.278-0.384,0.346-0.576l0.146-0.648l0.113-0.403
			c0.011-0.048,0.044-0.074,0.103-0.079c0.057-0.005,0.085,0.035,0.085,0.123l-0.014,0.647c-0.01,0.173-0.008,0.382,0.007,0.626
			c0.016,0.245,0.051,0.411,0.108,0.497l0.215,0.303c0.097,0.145,0.15,0.3,0.159,0.467c0.009,0.17-0.063,0.345-0.216,0.527
			c-0.451,0.527-1.81,0.743-4.076,0.648c-1.305-0.049-2.075-0.204-2.312-0.468c-0.235-0.264-0.354-0.561-0.354-0.886v-5.892
			l-0.777,0.23l-0.445,0.173l-0.418-0.23l0.676-0.144L117.852,35.104z M121.396,34.269v3.441c0.394,0.011,0.675-0.042,0.842-0.158
			c0.169-0.115,0.274-0.318,0.317-0.61c0.043-0.295,0.075-0.657,0.093-1.088l0.044-1.124v-0.851L121.396,34.269z"/>
	</g>
</g>
</svg>
